<?xml version="1.0" encoding="UTF-8"?>
<svg width="512" height="512" viewBox="0 0 512 512" fill="none" xmlns="http://www.w3.org/2000/svg">
  <path d="M256 32C132.3 32 32 132.3 32 256s100.3 224 224 224 224-100.3 224-224S379.7 32 256 32zm0 416c-105.9 0-192-86.1-192-192S150.1 64 256 64s192 86.1 192 192-86.1 192-192 192z" fill="currentColor"/>
  <path d="M368 176c-26.5 0-48 21.5-48 48s21.5 48 48 48 48-21.5 48-48-21.5-48-48-48zm-224 0c-26.5 0-48 21.5-48 48s21.5 48 48 48 48-21.5 48-48-21.5-48-48-48zm112 128c-35.3 0-64 28.7-64 64h128c0-35.3-28.7-64-64-64z" fill="currentColor"/>
</svg> 