<?xml version="1.0" encoding="UTF-8"?>
<svg width="512" height="512" viewBox="0 0 512 512" fill="none" xmlns="http://www.w3.org/2000/svg">
  <path d="M480 256c0-123.7-100.3-224-224-224S32 132.3 32 256s100.3 224 224 224 224-100.3 224-224zm-384 0c0-88.4 71.6-160 160-160s160 71.6 160 160-71.6 160-160 160S96 344.4 96 256zm288 0c0-70.7-57.3-128-128-128S128 185.3 128 256s57.3 128 128 128 128-57.3 128-128z" fill="currentColor"/>
  <path d="M256 176c-44.2 0-80 35.8-80 80s35.8 80 80 80 80-35.8 80-80-35.8-80-80-80zm0 128c-26.5 0-48-21.5-48-48s21.5-48 48-48 48 21.5 48 48-21.5 48-48 48z" fill="currentColor"/>
</svg> 